<svg width="973.1" height="973.1" xmlns="http://www.w3.org/2000/svg" xml:space="preserve" version="1.1">

 <g>
  <title>Layer 1</title>
  <g stroke="null" id="svg_1">
   <path stroke="null" id="svg_2" d="m492.29724,628.80499l-21.42655,0c-15.08976,0 -27.35304,12.26328 -27.35304,27.35304l0,29.58687c0,15.08976 12.26328,27.35304 27.35304,27.35304l21.42655,0c15.09021,0 27.35304,-12.26328 27.35304,-27.35304l0,-29.58687c0,-15.13489 -12.26282,-27.35304 -27.35304,-27.35304z"/>
   <path stroke="null" id="svg_3" d="m341.2173,399.76935l39.52514,4.92355c12.53681,1.55001 24.43538,-5.65296 28.94863,-17.46036c5.69855,-14.90741 13.63093,-26.66921 23.79714,-35.23983c14.40639,-12.12651 32.32217,-18.23536 53.74872,-18.23536c22.20155,0 39.88985,5.83531 53.0193,17.46036c13.12946,11.67063 19.6486,25.62068 19.6486,41.98691c0,11.76181 -3.69266,22.52067 -11.07798,32.27658c-4.78678,6.20002 -19.51183,19.2383 -44.08398,39.16043c-24.61773,19.92213 -40.98351,37.8835 -49.18942,53.83944c-8.38826,16.3211 -11.30592,34.41924 -12.03534,52.56388c-0.63778,15.54564 11.76181,28.49275 27.35304,28.49275l22.33831,0c14.22358,0 25.98539,-10.89563 27.26186,-25.02803c0.91177,-10.16576 2.59854,-17.87019 5.15194,-23.11286c4.28485,-8.98137 15.36283,-20.83435 33.14231,-35.60454c34.41878,-28.4932 56.84827,-51.01387 67.37965,-67.60805c10.48533,-16.54859 15.77358,-34.10012 15.77358,-52.6546c0,-33.50747 -14.26917,-62.91199 -42.85309,-88.16796c-28.53834,-25.25597 -67.01494,-37.88396 -115.33864,-37.88396c-45.9531,0 -83.01647,12.44563 -111.28127,37.38248c-24.07067,21.24419 -38.70455,46.40899 -43.85604,75.44879c-1.59605,8.47944 4.19368,16.41182 12.62753,17.46036z"/>
  </g>
  <g id="svg_4"/>
  <g id="svg_5"/>
  <g id="svg_6"/>
  <g id="svg_7"/>
  <g id="svg_8"/>
  <g id="svg_9"/>
  <g id="svg_10"/>
  <g id="svg_11"/>
  <g id="svg_12"/>
  <g id="svg_13"/>
  <g id="svg_14"/>
  <g id="svg_15"/>
  <g id="svg_16"/>
  <g id="svg_17"/>
  <g id="svg_18"/>
 </g>
</svg>