<svg width="512" height="512" xmlns="http://www.w3.org/2000/svg">

 <g>
  <title>Layer 1</title>
  <path id="svg_1" d="m397,77c-26.35937,0 -52.12109,9.14844 -72.53125,25.75781c-16.42578,13.36719 -28.86328,31.08594 -35.88672,50.85938c-18.98047,-10.90625 -40.35937,-16.61719 -62.58203,-16.61719c-27.92969,0 -54.39062,8.95313 -76.51562,25.88672c-18.46875,14.13672 -32.80079,33.36328 -41.125,54.93359c-4.33594,-1.20312 -8.83594,-1.82031 -13.35938,-1.82031c-27.57031,0 -50,22.42969 -50,50c0,2.29297 0.15625,4.57422 0.46875,6.83594c-27.52734,13.16406 -45.46875,41.13281 -45.46875,72.16406c0,44.11328 35.88672,80 80,80c8.66797,0 17.09766,-1.35547 25.16406,-4.03516c7.4961,14.48829 18.41407,26.91797 31.98438,36.3125c16.75,11.59375 36.41015,17.72266 56.85156,17.72266c10.73438,0 21.1875,-1.66797 31.20313,-4.96484c9.38281,24.89843 33.32421,41.96484 60.79687,41.96484c35.83984,0 65,-29.16016 65,-65c0,-4.76953 -0.51562,-9.47656 -1.53906,-14.08203c10.36328,-5.48438 17.44531,-15.94141 18.42187,-28.03906c34.3125,-16.70703 56.11719,-51.26563 56.11719,-89.87891c0,-3.69141 -0.20312,-7.38672 -0.60937,-11.05469c23.22656,-5.46875 44.32421,-18.12109 60.20703,-36.28125c18.3164,-20.9414 28.40234,-47.8125 28.40234,-75.66406c0,-63.41016 -51.58984,-115 -115,-115zm13.55469,209.03516c-0.03516,0.0039 -0.06641,0.01562 -0.10156,0.01953c-4.42579,0.625 -8.94922,0.94531 -13.45313,0.94531c-5.52344,0 -10,4.47656 -10,10s4.47656,10 10,10c2.19141,0 4.38672,-0.07812 6.57813,-0.20312c0.27734,2.72265 0.42187,5.46484 0.42187,8.20312c0,32.76953 -19.62891,61.88672 -50.00781,74.18359c-4.25781,1.72266 -6.79297,6.125 -6.14844,10.67579c1.10156,7.76171 -4.30859,15.60156 -12.37109,16.93359c-6.16797,1.01953 -9.97266,7.77344 -7.66407,13.56641c2.11719,5.3164 3.19141,10.91406 3.19141,16.64062c0,24.8125 -20.1875,45 -45,45c-21.85156,0 -40.47656,-15.59375 -44.28906,-37.08203c-1.12891,-6.36328 -8.21875,-10.03516 -14.0586,-7.32422c-10.58203,4.91406 -21.90234,7.40625 -33.65234,7.40625c-33.03906,0 -62.24609,-19.84766 -74.41016,-50.55859c-0.05859,-0.14844 -0.1289,-0.28516 -0.19531,-0.42578c-0.04687,-0.14454 -0.08594,-0.28907 -0.14062,-0.42969c-3.48438,-9.11328 -5.25391,-18.73047 -5.25391,-28.58594c0,-5.52344 -4.47656,-10 -10,-10s-10,4.47656 -10,10c0,9.31641 1.27344,18.46484 3.78125,27.30469c-5.71875,1.77734 -11.66406,2.69531 -17.78125,2.69531c-33.08594,0 -60,-26.91406 -60,-60c0,-22.55078 12.63672,-42.93359 32.19531,-53.16016c2.07422,3.42969 4.55078,6.6211 7.44922,9.51563c3.66016,3.66016 10.28516,3.85937 14.14063,0c3.90625,-3.90625 3.90625,-10.23828 0,-14.14063c-5.48438,-5.48828 -8.78516,-13.46484 -8.78516,-21.21484c0,-16.54297 13.45703,-30 30,-30c5.31641,0 10.60156,1.46094 15.18359,4.14844c6.11719,3.58203 12.76172,12.04687 20.17188,4.63672c3.90625,-3.90235 3.90625,-10.23438 0,-14.14063c-1.29297,-1.29297 -2.65234,-2.5039 -4.06641,-3.64062c15.01563,-41.55078 55.02344,-70.00391 99.71094,-70.00391c20.58984,0 40.30859,5.84375 57.42578,16.91797c-0.9414,5.96094 -1.42578,12.01172 -1.42578,18.08203c0,5.52344 4.47656,10 10,10s10,-4.47656 10,-10c0,-6.91406 0.75,-13.79297 2.22266,-20.5c9.49218,-43.16797 48.50781,-74.5 92.77734,-74.5c52.38281,0 95,42.61719 95,95c0,46.98047 -35.01172,87.40625 -81.44531,94.03516zm0,0"/>
  <path id="svg_2" d="m105,159c22.05469,0 40,-17.94531 40,-40s-17.94531,-40 -40,-40s-40,17.94531 -40,40s17.94531,40 40,40zm0,-60c11.02734,0 20,8.97266 20,20s-8.97266,20 -20,20s-20,-8.97266 -20,-20s8.97266,-20 20,-20zm0,0"/>
  <path id="svg_3" d="m225,100c27.57031,0 50,-22.42969 50,-50s-22.42969,-50 -50,-50s-50,22.42969 -50,50s22.42969,50 50,50zm0,-80c16.54297,0 30,13.45703 30,30s-13.45703,30 -30,30s-30,-13.45703 -30,-30s13.45703,-30 30,-30zm0,0"/>
 </g>
</svg>