<svg id="Capa_1" enable-background="new 0 0 511.937 511.937" height="512" viewBox="0 0 511.937 511.937" width="512" xmlns="http://www.w3.org/2000/svg"><g><path d="m450.219 100.517-15.004-8.663c-.001 0-141.747-81.837-141.747-81.837-23.131-13.355-51.869-13.355-75 0l-156.751 90.5c-23.131 13.354-37.5 38.242-37.5 64.952v181c0 26.71 14.369 51.598 37.5 64.952l156.751 90.5c11.565 6.678 24.533 10.016 37.5 10.016s25.935-3.338 37.5-10.016l156.751-90.5c23.131-13.354 37.5-38.242 37.5-64.952v-181c0-26.71-14.369-51.598-37.5-64.952zm-216.751-64.52c6.939-4.006 14.72-6.01 22.5-6.01s15.561 2.004 22.5 6.01l141.747 81.837c6.768 3.908 7.499 10.385 7.499 12.99 0 2.604-.73 9.081-7.499 12.99 0 0-141.874 81.921-141.938 81.958-13.782 7.868-30.834 7.867-44.615.001-.065-.038-141.941-81.96-141.941-81.96-6.768-3.909-7.499-10.387-7.498-12.99 0-2.604.731-9.082 7.5-12.99 0 .001 141.745-81.836 141.745-81.836zm-179.251 310.472v-163.68c0-7.816 5.245-11.688 7.5-12.99s8.231-3.906 15 0c.003-.005 141.876 81.921 141.939 81.957 13.766 8.039 22.312 22.903 22.312 38.855v163.945c0 7.823-5.251 11.694-7.509 12.996-1.974 1.136-6.793 3.267-12.496 1.169l-144.246-83.281c-13.878-8.012-22.5-22.945-22.5-38.971zm403.502 0c0 16.026-8.622 30.959-22.5 38.972l-144.247 83.281c-5.704 2.098-10.522-.033-12.496-1.169-2.258-1.302-7.509-5.174-7.509-12.996v-163.947c0-15.952 8.547-30.818 22.315-38.856.062-.035.125-.068.187-.104l141.747-81.856c6.773-3.902 12.748-1.296 15.003.004 2.255 1.302 7.5 5.174 7.5 12.99z"/></g></svg>